<svg width="42" height="64" viewBox="0 0 42 64" fill="none" xmlns="http://www.w3.org/2000/svg">
<path d="M21 24.2324L0.119963 0L0 26.3318L4.91846 29.9906L0 34.3693V46.6054L11.6963 57.582V54.403L21 64V24.2324Z" fill="#1E293B"/>
<path d="M14.9953 29.8707L5.27835 30.0506L11.5764 34.8491L16.7948 35.0291L16.4949 43.4264L18.7741 44.866L20.9335 47.6851V42.4067H17.9944L18.1743 34.6692L14.9953 29.8707Z" fill="white"/>
<path d="M13.9157 32.5098C13.9157 32.9736 13.5397 33.3496 13.0759 33.3496C12.6121 33.3496 12.2362 32.9736 12.2362 32.5098C12.2362 32.0461 12.6121 31.6701 13.0759 31.6701C13.5397 31.6701 13.9157 32.0461 13.9157 32.5098Z" fill="#1E293B"/>
<path d="M21 24.2324L41.8135 0L41.9335 26.3318L37.015 29.9906L41.9335 34.3693V46.6054L30.2371 57.582V54.403L21 64V24.2324Z" fill="#1E293B"/>
<path d="M26.8116 29.8707L36.5286 30.0506L30.2306 34.8491L25.0122 35.0291L25.3121 43.4264L23.0328 44.866L20.8735 47.6851V42.4067H23.8126L23.6326 34.6692L26.8116 29.8707Z" fill="white"/>
<path d="M27.8913 32.5098C27.8913 32.9736 28.2673 33.3496 28.731 33.3496C29.1948 33.3496 29.5708 32.9736 29.5708 32.5098C29.5708 32.0461 29.1948 31.6701 28.731 31.6701C28.2673 31.6701 27.8913 32.0461 27.8913 32.5098Z" fill="#1E293B"/>
</svg>
