<?xml version="1.0" encoding="UTF-8"?>
<svg xmlns="http://www.w3.org/2000/svg" version="1.1" viewBox="0 0 800 800">
  <defs>
    <style>
      .cls-1 {
        fill: #010002;
      }
    </style>
  </defs>
  <!-- Generator: Adobe Illustrator 28.7.2, SVG Export Plug-In . SVG Version: 1.2.0 Build 154)  -->
  <g>
    <g id="Capa_1">
      <path class="cls-1" d="M213.1,184.3c-4.2,2.1-59.2,26.7-45.7,37.8,4.9,4.1,13.3,4.7,19.3,5.9,8.9,1.8,17.9,3.5,26.2,7.3,6.6,3,15.4,9.7,13.6,18.1-1.1,5.1-7,8.1-11.2,10.2-6,3.1-12.4,5.4-18.6,7.9-9.4,3.8-23.2,9.1-25.4,20.4-1.1,5.8,1.9,11,5.4,15.3,4.8,5.8,10.5,10.7,15.4,16.3,3,3.4,5.8,7.3,7.2,11.6,1.6,4.7.9,10.2.2,15-1.5,9.6-6.2,18.4-10.6,27-4,7.8-7.6,15.8-9.1,24.5-1.9,11,.6,22.1,4.9,32.3.8,1.9,3.8-.8,3.1-2.5-3.8-8.9-6-18.2-5-27.9.7-7.6,3.7-14.7,6.9-21.5,6.5-13.4,13.7-26.1,13.8-41.4,0-15.1-13.5-24.4-22.7-34.6-4.1-4.6-8.4-10.7-5.6-17,2.3-5.1,8.2-8.1,13-10.4,12.8-6.4,55-16.5,37.8-38.6-5.1-6.6-13.7-9.7-21.5-11.9-8.4-2.4-17.2-3.6-25.7-5.7-3.8-.9-13.5-3-9.1-8.4,3.6-4.4,9.1-7.6,13.9-10.5,9.6-5.9,19.7-11.1,29.8-16.1,1.8-.9,1.8-4.4-.6-3.2ZM299.6,253.7c7.2-.5,14.4-.9,21.6-.6,2.7.1,6.7,0,8.9,1.9,1.3,1,0,2.4-.9,3.3-2,2-4.4,3.6-6.7,5.3-5.4,3.7-11.4,7.2-15.7,12.1-1.4,1.6-2.9,3.7-2.7,6,.3,2.9,3.1,4.3,5.5,5.2,8.7,3.3,18.5,2.8,27.3,5.8,2.5.9,6,2.6,4.6,5.8-1.8,4.2-7.2,4.6-11.2,4.9-9,.6-21.5-.4-25,10.2-1.3,3.8-.2,6.8,1.9,10.1,2,3.3,4.6,6.3,6.6,9.7,1,1.8,2.2,4.5.4,6.2-1.3,1.2-3.2,1.6-4.9,2-3,.6-6,.7-9,.8-.7,0-1.2,1.4-.3,1.4,3.4,0,6.8-.3,10.1-1,1.8-.4,3.6-1.1,5-2.4,2.2-2.2,1.3-5.3,0-7.8-1.9-3.4-4.5-6.4-6.5-9.6-.9-1.5-1.8-3.1-2.3-4.8-.6-2.1.1-4.2,1.1-6.1,2.3-4.7,7.8-6.1,12.6-6.5,5-.5,10-.2,14.9-1.1,3.7-.7,7.3-2.8,8.2-6.7.7-3.1-2-4.9-4.5-5.9-4.1-1.7-8.8-2.3-13.2-3-4.7-.8-9.4-1.4-14-2.8-2.3-.7-5.9-2.1-6-5,0-2.2,1.9-4.2,3.4-5.6,4.8-4.7,10.8-8.1,16.2-12,1.9-1.4,9.5-6.3,6.4-9.4-2-2-5.9-2-8.5-2.1-7.5-.5-15.2,0-22.7.5-.7,0-1.2,1.5-.3,1.5ZM236.8,291.1c8.6,3,17.2,6,25.5,10.8,3.4,1.9,7.7,4.3,9.9,9.1,3.7,8.1-5.1,14.1-8.5,16.7-7.1,5.5-15.1,9.9-21.1,18.3-2.3,3.1-4.2,7.3-3.9,12.2.4,7.6,5.1,13,9.1,16.3,10.4,8.5,24.5,10.6,31,27.8,3.7,9.8,3.4,22.6,0,32.4-4.1,12-12.1,20.3-19.8,25.9-1.8,1.3-3.6,2.5-5.5,3.5-.8.5-1.9-2.2-.9-2.7,8.4-4.8,16.8-12.2,22.4-23.3,5-9.9,6.4-23.9,2.4-35.2-3-8.5-9.1-13-14.6-16.5-5.7-3.6-11.7-6.3-17-11.2-3.9-3.7-7.7-9.4-8.6-16.7-.6-4.9.7-9.2,2.7-12.8,5.1-9.1,13.5-13.8,20.3-18.9,2.3-1.7,13.2-8.3,11-14.4-1.6-4.5-6.6-6.7-9.4-8.3-8-4.6-16.5-7.5-24.8-10.4-.9-.3-1.4-3.1-.2-2.7ZM246.5,176.7c-3.8-1.3-7.5-2.6-11.3-3.5-.9-.2-1.9-.4-2.8-.5-.9-.1-1.9-.2-2.6,0-.3.1-.4.3-.5.5,0,.2,0,.6.2,1,.3.8.9,1.6,1.4,2.4,1.2,1.6,2.4,3.2,3.3,5.1.4,1,.8,2.1.7,3.3,0,.6-.3,1.2-.6,1.7s-.7.9-1.1,1.3c-1.6,1.4-3.4,2.2-4.8,3.5-1.4,1.3-2.3,3.1-2.7,5.1,0-2,.8-4,2.1-5.6,1.4-1.6,3.2-2.6,4.5-3.9.7-.6,1.1-1.4,1.1-2.2,0-.8-.2-1.7-.6-2.5-.8-1.7-2-3.2-3.2-4.8-.6-.8-1.2-1.7-1.6-2.8-.2-.5-.4-1.1-.3-1.9,0-.4.3-.8.6-1.1.3-.3.6-.4.9-.5,1.2-.3,2.3-.2,3.3,0,1,.2,2,.4,3,.7,3.9,1.2,7.5,2.8,11,4.7ZM267.8,232.3c6-2.9,11.9-5.8,17.5-9.2,1.4-.9,2.7-1.8,4-2.7,1.2-1,2.5-2.1,3-3.2.2-.6.2-.8,0-1.1-.2-.3-.8-.7-1.4-1-1.3-.6-2.9-.9-4.5-1.1-3.2-.5-6.7-.9-9.9-2.2-1.6-.7-3.3-1.5-4.6-3-.6-.8-1.1-1.7-1.3-2.6-.2-.9-.3-1.9-.2-2.8.3-3.5,1.5-6.6,1.5-9.8.2-3.2-.9-6.4-2.8-9.1,2.3,2.4,3.9,5.6,4.1,9.1.3,3.4-.7,6.8-.7,9.9,0,1.5.3,2.9,1.2,3.8.9,1,2.3,1.7,3.7,2.2,2.9,1.1,6.1,1.5,9.4,1.9,1.7.3,3.4.6,5.1,1.4.9.4,1.8.9,2.5,1.9.3.5.6,1.2.6,1.9,0,.7-.2,1.3-.5,1.7-1,1.9-2.5,2.9-3.8,3.9-1.4,1-2.9,1.9-4.3,2.6-5.9,3.1-12.1,5.5-18.5,7.4ZM246.5,196.3l3.5,10.7h11.2l-9.1,6.6,3.5,10.7-9.1-6.6-9.1,6.6,3.5-10.7-9.1-6.6h11.2l3.5-10.7ZM258.7,256.5l2.2,6.7h7l-5.7,4.1,2.2,6.7-5.7-4.1-5.7,4.1,2.2-6.7-5.7-4.1h7l2.2-6.7ZM321,197.2v.4h.6l-.4.3v.4c.1,0-.2-.3-.2-.3l-.4.3v-.4c.1,0-.2-.3-.2-.3h.4l.2-.4ZM184.9,234.1l3,9.4h9.9l-8,5.8,3.1,9.4-8-5.8-8,5.8,3.1-9.4-8-5.8h9.9l3.1-9.4ZM277.6,245.8c2.1,0,3.8,1.7,3.8,3.8s-1.7,3.8-3.8,3.8-3.8-1.7-3.8-3.8,1.7-3.8,3.8-3.8ZM298.4,201.7c1.9,0,3.4,1.5,3.4,3.4s-1.5,3.4-3.4,3.4-3.4-1.5-3.4-3.4,1.5-3.4,3.4-3.4ZM292.2,184.6c1.5,0,2.8,1.3,2.8,2.8s-1.3,2.8-2.8,2.8-2.8-1.3-2.8-2.8,1.3-2.8,2.8-2.8ZM230.9,261.3c2.9,0,5.2,2.3,5.2,5.2s-2.3,5.2-5.2,5.2-5.2-2.3-5.2-5.2,2.3-5.2,5.2-5.2ZM220.8,285.9c2.7,0,4.8,2.1,4.8,4.8s-2.1,4.8-4.8,4.8-4.8-2.1-4.8-4.8,2.1-4.8,4.8-4.8ZM215.6,206.6c1.7,0,3,1.4,3,3s-1.4,3-3,3-3-1.4-3-3,1.4-3,3-3ZM211.7,167.2c2.4,0,4.3,1.9,4.3,4.3s-1.9,4.3-4.3,4.3-4.3-1.9-4.3-4.3,1.9-4.3,4.3-4.3ZM191.4,304.8c1.7,0,3,1.4,3,3s-1.4,3-3,3-3-1.4-3-3,1.4-3,3-3ZM285.4,285.9c2.2,0,4,1.8,4,4s-1.8,4-4,4-4-1.8-4-4,1.8-4,4-4ZM296.7,310.8c2.5,0,4.5,2,4.5,4.5s-2,4.5-4.5,4.5-4.5-2-4.5-4.5,2-4.5,4.5-4.5Z"/>
    </g>
  </g>
</svg>